<svg width="28" height="28" fill="none" xmlns="http://www.w3.org/2000/svg"><path d="M12.1 24.18A12.1 12.1 0 1012.1 0a12.1 12.1 0 000 24.18z" fill="#FAF7F1"/><path fill-rule="evenodd" clip-rule="evenodd" d="M12.47 21H17c1.56 0 2.55-.95 2.55-2.44 0-1.77-1.43-2.26-2.95-2.26h-4.12V21zm0-6.22h3.61c2.05 0 2.89-.75 2.89-2.17 0-1.89-1.33-2.15-2.89-2.15h-3.6v4.32zm-1.8-5.85h4.92c1.2 0 2.77 0 3.59.5.9.53 1.6 1.5 1.6 2.83 0 1.45-.77 2.54-2.02 3.05v.04c1.67.34 2.58 1.6 2.58 3.27 0 2-1.42 3.9-4.12 3.9h-6.55V8.93z" fill="#7F7F7F"/><mask id="a" maskUnits="userSpaceOnUse" x="3" y="3" width="25" height="25"><path d="M3.73 3.85h24.15V28H3.73V3.85z" fill="#fff"/></mask><g mask="url(#a)"><path fill-rule="evenodd" clip-rule="evenodd" d="M15.8 3.85a12.07 12.07 0 100 24.15 12.07 12.07 0 000-24.15zm10.5 12.08a10.48 10.48 0 11-20.97 0 10.48 10.48 0 0120.96 0z" fill="#7F7F7F"/></g></svg>