<svg width="28" height="28" fill="none" xmlns="http://www.w3.org/2000/svg"><path d="M11.7 23.4a11.7 11.7 0 100-23.4 11.7 11.7 0 000 23.4z" fill="#FAF7F1"/><path fill-rule="evenodd" clip-rule="evenodd" d="M15.6 3.9a11.71 11.71 0 000 23.4 11.71 11.71 0 000-23.4zm0 1.53a10.16 10.16 0 110 20.35 10.16 10.16 0 110-20.35zm-4.32 5.34a1.53 1.53 0 100 3.05 1.53 1.53 0 000-3.05zm8.65 0a1.53 1.53 0 100 3.05 1.53 1.53 0 000-3.05zm-10 7.12c-.68.03-.87.72-.56 1.19a7.51 7.51 0 006.23 3.4 7.51 7.51 0 006.23-3.4.79.79 0 00-.2-1.06.8.8 0 00-1.07.2 5.96 5.96 0 01-4.96 2.72 5.96 5.96 0 01-4.96-2.71.88.88 0 00-.71-.34z" fill="#747474" stroke="#747474" stroke-width=".25"/></svg>