<svg width="27" height="28" fill="none" xmlns="http://www.w3.org/2000/svg"><path d="M12.31 24.62a12.31 12.31 0 100-24.62 12.31 12.31 0 000 24.62z" fill="#FAF7F1"/><path d="M17.67 8.59l-.64-.1-.28-.56a.9.9 0 00-.8-.49.9.9 0 00-.8.48l-.3.56-.62.08a.88.88 0 00-.73.59c-.1.32-.02.66.23.9l.45.43-.1.62c-.06.33.07.65.35.85a.93.93 0 00.95.07l.56-.28.57.3c.3.15.67.13.95-.06.28-.2.41-.52.36-.85l-.11-.62.46-.43a.84.84 0 00.22-.9.9.9 0 00-.72-.6zm-.88 1.38a.5.5 0 00-.15.44l.11.62-.57-.3a.52.52 0 00-.48 0l-.57.3.1-.63a.49.49 0 00-.14-.44l-.46-.44.64-.09a.5.5 0 00.39-.27l.28-.56.29.56c.08.15.22.26.39.28l.64.1-.47.43zm6.84.15l-.46.43.11.61a.85.85 0 01-.36.85.91.91 0 01-.94.06l-.57-.3-.57.3a.91.91 0 01-.95-.08.86.86 0 01-.35-.86l.02-.14a.5.5 0 01.6-.4.5.5 0 01.42.48l.59-.3a.54.54 0 01.48 0l.57.3-.11-.62a.48.48 0 01.15-.44l.47-.43-.64-.1a.51.51 0 01-.4-.27l-.28-.57-.29.56a.5.5 0 01-.38.27l-.66.1c.14.18.12.45-.05.62-.2.2-.52.2-.73 0l-.1-.1a.86.86 0 01-.24-.9c.11-.31.39-.53.73-.58l.63-.09.29-.55c.15-.3.46-.48.8-.48a.9.9 0 01.8.49l.3.56.62.1c.34.04.62.27.73.6.1.3.02.65-.23.88zm-10.7-.98a.9.9 0 00-.73-.6l-.63-.09-.28-.56a.9.9 0 00-.8-.5.89.89 0 00-.81.49l-.29.55-.63.09a.88.88 0 00-.73.58c-.1.32-.02.66.23.9l.46.44-.11.61c-.06.33.08.66.36.86a.92.92 0 00.94.07l.57-.29.56.3c.3.16.67.14.95-.06.28-.2.42-.52.36-.85l-.11-.61.46-.43a.84.84 0 00.23-.9zm-1.6.8a.5.5 0 00-.15.43l.1.63-.57-.3a.52.52 0 00-.47 0l-.58.28.11-.62a.48.48 0 00-.14-.44l-.47-.44.64-.09a.5.5 0 00.39-.27l.29-.56.29.57c.07.14.21.25.38.27l.64.1-.46.43zm13.08 9.63a.5.5 0 00-.3-.64.51.51 0 00-.66.28c-.18.45-.4.86-.65 1.24v-6.27h1.5a22.36 22.36 0 01-.43 3.66.5.5 0 00.39.6h.06a.5.5 0 00.55-.38c.25-1.1.4-2.48.48-4.33v-.03-.02c.08-1.85.1-4.1.1-6.66 0-.4-.16-.78-.45-1.06a1.56 1.56 0 00-1.1-.45l-2.83-.02a.5.5 0 00-.51.5c0 .27.23.5.51.5l2.83.02a.52.52 0 01.52.5c0 2.34-.01 4.43-.08 6.18l-7.13-.05-2.54-.02-2.54-.02h-.01l-2.54-.02-2.04-.01a97.7 97.7 0 01-.05-2.68c0-.27-.23-.5-.52-.5a.5.5 0 00-.51.5c0 1.2.03 2.22.06 3.15v.08c.2 4.53.87 6.67 2.67 8.46l.02.02c.65.64 1.46 1.26 2.62 2 .82.51 1.76 1.05 2.57 1.5l.75.44a1.57 1.57 0 001.53.01l.77-.42c1.1-.61 1.9-1.07 2.57-1.48a14.88 14.88 0 002.63-1.96 7.29 7.29 0 001.76-2.62zm-6.69-5.43l1.52.01-.02 9.3c-.43.27-.92.55-1.51.89l.01-10.2zm-10.14-.08l1.49.01-.01 6.28c-.92-1.37-1.33-3.17-1.48-6.29zm8.09 11.11l-.5-.28v-2.2c0-.27-.23-.5-.52-.5a.5.5 0 00-.5.5l-.01 1.62-1.52-.9.01-5.42c0-.27-.23-.5-.51-.5a.5.5 0 00-.52.5v4.75c-.62-.42-1.1-.8-1.52-1.2l.01-7.46 1.52.02v2.35c0 .26.2.47.46.5h.05a.5.5 0 00.51-.5V14.1l1.52.01v7.1c0 .27.2.48.45.5l.06.01a.5.5 0 00.51-.5l.01-7.1 1.52.01-.02 10.78-.5.27a.53.53 0 01-.51 0zm4.58-2.37l.02-8.64h1.51l-.01 7.47c-.41.38-.9.76-1.52 1.17zM6.45 6.88c0-.83.7-1.5 1.54-1.49l10.18.08a.5.5 0 01.51.5.5.5 0 01-.51.5L7.99 6.38a.5.5 0 00-.51.5v2.03a.5.5 0 01-.57.5.51.51 0 01-.46-.5V6.88zm12.66-.86v-.1c0-.03 0-.07.02-.1a.69.69 0 01.04-.09.38.38 0 01.06-.08.57.57 0 01.15-.12.63.63 0 01.2-.05.53.53 0 01.5.26l.03.1.02.09v.1c0 .03 0 .06-.02.1l-.04.08a.76.76 0 01-.06.08l-.07.07a.52.52 0 01-.37.1.73.73 0 01-.1-.01.75.75 0 01-.18-.1.4.4 0 01-.07-.06l-.05-.09a.5.5 0 01-.06-.18z" fill="#747474"/></svg>