<svg width="132" height="70" fill="none" xmlns="http://www.w3.org/2000/svg"><path d="M.87305 32V.00781H11.332c3.4717 0 6.0791.71778 7.8223 2.15332C20.9121 3.59668 21.791 5.7207 21.791 8.5332c0 1.4941-.4248 2.8198-1.2744 3.9771-.8496 1.1425-2.0068 2.0288-3.4717 2.6586 1.7285.4834 3.0908 1.4063 4.0869 2.7686 1.0108 1.3477 1.5161 2.959 1.5161 4.834 0 2.8711-.9301 5.1269-2.7905 6.7676C17.9971 31.1797 15.3677 32 11.9692 32H.87305zM5.0918 17.0366v11.5137h6.9653c1.9629 0 3.5083-.5054 4.6363-1.5161 1.1425-1.0254 1.7138-2.4317 1.7138-4.2188 0-3.8525-2.0947-5.7788-6.2842-5.7788H5.0918zm0-3.3838h6.3721c1.8457 0 3.3178-.4614 4.4165-1.3842 1.1133-.9229 1.6699-2.1753 1.6699-3.75737 0-1.75781-.5127-3.03223-1.5381-3.82324-1.0254-.80567-2.5854-1.2085-4.6802-1.2085H5.0918V13.6528zm33.2666 6.2403c0-2.3291.4541-4.4239 1.3623-6.2842.9229-1.8604 2.1973-3.2959 3.8232-4.30665 1.6407-1.01075 3.5083-1.51612 5.6031-1.51612 3.2373 0 5.852 1.12061 7.8442 3.36177 2.0068 2.2413 3.0103 5.2222 3.0103 8.9429v.2857c0 2.3144-.4468 4.3945-1.3404 6.2402-.8789 1.8311-2.146 3.2593-3.8012 4.2847-1.6407 1.0254-3.5303 1.5381-5.669 1.5381-3.2226 0-5.8374-1.1207-7.8442-3.3619-1.9922-2.2412-2.9883-5.2075-2.9883-8.8989v-.2856zm4.0869.4834c0 2.6367.6079 4.7534 1.8237 6.3501 1.2305 1.5966 2.8711 2.395 4.9219 2.395 2.0654 0 3.7061-.8057 4.9219-2.417 1.2158-1.626 1.8237-3.8965 1.8237-6.8115 0-2.6075-.6225-4.7168-1.8677-6.3282-1.2304-1.6259-2.871-2.4389-4.9218-2.4389-2.0069 0-3.6255.7983-4.856 2.395-1.2305 1.5967-1.8457 3.8818-1.8457 6.8555zm32.7393-.4834c0-2.3291.4541-4.4239 1.3623-6.2842.9228-1.8604 2.1972-3.2959 3.8232-4.30665 1.6406-1.01075 3.5083-1.51612 5.603-1.51612 3.2373 0 5.8521 1.12061 7.8443 3.36177 2.0068 2.2413 3.0102 5.2222 3.0102 8.9429v.2857c0 2.3144-.4467 4.3945-1.3403 6.2402-.8789 1.8311-2.146 3.2593-3.8013 4.2847-1.6406 1.0254-3.5302 1.5381-5.6689 1.5381-3.2227 0-5.8374-1.1207-7.8442-3.3619-1.9922-2.2412-2.9883-5.2075-2.9883-8.8989v-.2856zm4.0869.4834c0 2.6367.6079 4.7534 1.8237 6.3501 1.2305 1.5966 2.8711 2.395 4.9219 2.395 2.0654 0 3.706-.8057 4.9219-2.417 1.2158-1.626 1.8237-3.8965 1.8237-6.8115 0-2.6075-.6226-4.7168-1.8677-6.3282-1.2304-1.6259-2.8711-2.4389-4.9219-2.4389-2.0068 0-3.6254.7983-4.8559 2.395-1.2305 1.5967-1.8457 3.8818-1.8457 6.8555zM116.933 8.22559l.131 2.98831c1.817-2.28519 4.19-3.42777 7.12-3.42777 5.024 0 7.558 2.83447 7.602 8.50347V32h-4.065V16.2676c-.014-1.7139-.41-2.981-1.186-3.8013-.762-.8203-1.956-1.2305-3.582-1.2305-1.318 0-2.475.3516-3.472 1.0547-.996.7032-1.772 1.626-2.329 2.7686V32h-4.065V8.22559h3.846zM32.0278 51.2266l6.5552 15.686 6.5796-15.686h2.002V69h-1.5015v-7.7393l.1221-7.9345L39.1689 69h-1.1596l-6.5918-15.6128.1221 7.8247V69h-1.5015V51.2266h1.9897zM59.6646 69c-.1465-.415-.2401-1.0295-.2808-1.8433-.5127.6674-1.1678 1.1841-1.9653 1.5503-.7894.3581-1.6276.5371-2.5147.5371-1.2695 0-2.299-.354-3.0884-1.062-.7812-.708-1.1718-1.6032-1.1718-2.6855 0-1.2858.533-2.3031 1.5991-3.0518 1.0742-.7487 2.5675-1.123 4.48-1.123h2.6489v-1.5015c0-.944-.293-1.6846-.8789-2.2217-.5778-.5452-1.4242-.8178-2.5391-.8178-1.0172 0-1.8595.2604-2.5268.7812-.6674.5208-1.001 1.1475-1.001 1.8799l-1.4649-.0122c0-1.0498.4883-1.9572 1.4649-2.7222.9765-.7731 2.1769-1.1596 3.6011-1.1596 1.4729 0 2.6326.3702 3.479 1.1108.8545.7324 1.2939 1.7578 1.3183 3.0762v6.25c0 1.2776.1343 2.2339.4029 2.8686V69h-1.5625zm-4.5899-1.0498c.9766 0 1.8473-.236 2.6123-.708.7731-.472 1.3346-1.1027 1.6846-1.8921v-2.9053h-2.6123c-1.4567.0163-2.5961.2849-3.418.8057-.8219.5127-1.2329 1.2207-1.2329 2.124 0 .7406.2726 1.355.8179 1.8433.5534.4883 1.2695.7324 2.1484.7324zM70.834 57.0371c-.3093-.057-.6389-.0854-.9888-.0854-.9114 0-1.6846.2563-2.3193.769-.6266.5046-1.0742 1.2411-1.3428 2.2095V69h-1.4526V55.792h1.4282l.0244 2.0996c.7731-1.5625 2.0142-2.3437 3.7231-2.3437.407 0 .7284.0528.9644.1586l-.0366 1.3306zm5.4565 5.3101l-1.6723 1.6113V69h-1.4649V50.25h1.4649v11.9995l1.3794-1.4892 5.0537-4.9683h1.8432l-5.603 5.5664L83.3828 69h-1.7456l-5.3467-6.6528zm13.9893 6.8969c-1.1231 0-2.1403-.2767-3.0518-.83-.9033-.5534-1.6072-1.3225-2.1118-2.3072-.5045-.9928-.7568-2.1036-.7568-3.3325v-.5249c0-1.2695.2441-2.4129.7324-3.4302.4964-1.0172 1.1841-1.8147 2.063-2.3925.8789-.586 1.831-.8789 2.8564-.8789 1.6032 0 2.8728.5493 3.8086 1.6479.944 1.0905 1.416 2.5838 1.416 4.48v.8179H85.812v.2807c0 1.4974.4273 2.7466 1.2818 3.7476.8626.9928 1.9449 1.4892 3.247 1.4892.7813 0 1.4689-.1424 2.063-.4272.6022-.2848 1.1475-.7406 1.6358-1.3672l.9155.6958c-1.0742 1.5544-2.6327 2.3315-4.6753 2.3315zm-.2686-12.4511c-1.0986 0-2.0263.4028-2.7832 1.2085-.7487.8056-1.2044 1.888-1.3672 3.247h7.9224v-.1587c-.0407-1.2695-.4028-2.303-1.0864-3.1005-.6836-.7976-1.5788-1.1963-2.6856-1.1963zm10.3398-4.3824v3.3814h2.734v1.1963h-2.734v8.8013c0 .7324.13 1.2776.39 1.6357.269.3581.712.5371 1.331.5371.244 0 .639-.0407 1.184-.1221l.061 1.1963c-.383.1384-.903.2075-1.563.2075-1.001 0-1.729-.2889-2.1847-.8667-.4557-.5859-.6836-1.4445-.6836-2.5756v-8.8135h-2.4292V55.792h2.4292v-3.3814h1.4653z" fill="#747474"/></svg>