<svg width="28" height="28" fill="none" xmlns="http://www.w3.org/2000/svg"><path d="M13.3 26.6a13.3 13.3 0 100-26.6 13.3 13.3 0 000 26.6z" fill="#FAF7F1"/><path d="M15.87 27.22a11.36 11.36 0 100-22.71 11.36 11.36 0 000 22.71z" stroke="#747474" stroke-width="1.66"/><path fill-rule="evenodd" clip-rule="evenodd" d="M6.53 8.66l1.2-1.2L24.27 24l-1.2 1.2L6.53 8.66z" fill="#747474"/><path d="M17.94 13.37V8.14h.76c.22 0 .4-.15.4-.34 0-.18-.18-.33-.4-.33h-5.67c-.21 0-.39.15-.39.33 0 .19.18.34.4.34h.75v5.23c-2.64.76-4.46 2.9-4.46 5.3 0 3.09 2.93 5.6 6.54 5.6 3.6 0 6.53-2.51 6.53-5.6 0-2.4-1.82-4.54-4.46-5.3zM15.87 23.6c-3.17 0-5.75-2.2-5.75-4.92 0-2.18 1.72-4.13 4.17-4.72.17-.05.29-.18.29-.33V8.14h2.57v5.48c0 .15.12.28.29.33 2.46.6 4.17 2.54 4.17 4.72 0 2.72-2.57 4.92-5.74 4.92z" fill="#747474" stroke="#747474"/><path d="M18.48 17.22c-.2 0-.28-.05-.42-.15-.18-.11-.43-.27-.89-.27s-.7.16-.88.27c-.15.1-.23.15-.43.15-.2 0-.28-.05-.42-.15a1.47 1.47 0 00-.89-.27c-.45 0-.7.16-.88.27-.15.1-.23.15-.42.15-.2 0-.29-.05-.44-.15-.15-.1-.37-.23-.73-.26-.15-.01-.3.05-.36.16a3.15 3.15 0 00-.52 1.7c0 2.05 2.1 3.73 4.67 3.73s4.66-1.68 4.66-3.73c0-.59-.18-1.17-.51-1.7-.07-.1-.22-.17-.37-.16-.36.03-.58.17-.74.26-.15.1-.23.15-.43.15z" fill="#747474"/></svg>