<svg width="28" height="27" fill="none" xmlns="http://www.w3.org/2000/svg"><path d="M11.34 22.57c6.26 0 11.33-5.05 11.33-11.29C22.67 5.05 17.6 0 11.34 0A11.31 11.31 0 000 11.28c0 6.24 5.08 11.29 11.34 11.29z" fill="#FAF7F1"/><path fill-rule="evenodd" clip-rule="evenodd" d="M4.83 16.27a.48.48 0 01-.49-.47c0-2.56 1-5.02 2.82-6.9a10.79 10.79 0 017-3.22l-1.48-1.4a.46.46 0 010-.68c.2-.19.5-.19.7 0l2.28 2.2c.19.18.19.48 0 .66l-2.28 2.2c-.19.18-.5.19-.7 0a.46.46 0 010-.67l1.42-1.36a9.78 9.78 0 00-6.26 2.95 8.96 8.96 0 00-2.52 6.22c0 .13-.05.25-.14.34a.5.5 0 01-.35.13h0zm14.79 7.5a9.83 9.83 0 01-6.88 1 9.47 9.47 0 01-5.73-3.76l1.92.5c.13.04.27.02.39-.04.11-.06.2-.16.23-.29a.45.45 0 00-.05-.36.5.5 0 00-.31-.22l-3.12-.79a.5.5 0 00-.37.05.47.47 0 00-.23.28l-.83 3c-.07.26.09.51.35.58h.13c.23 0 .43-.14.49-.35l.54-1.95a10.43 10.43 0 006.33 4.25c2.6.59 5.35.2 7.65-1.1a.48.48 0 00.27-.29.45.45 0 00-.05-.38.5.5 0 00-.73-.11v-.02zm7.29-3.67a.47.47 0 00-.23-.29.51.51 0 00-.37-.04l-2.03.52a9.8 9.8 0 00.64-7.42 10.3 10.3 0 00-4.8-5.85.51.51 0 00-.39-.06.49.49 0 00-.3.22.45.45 0 00-.05.36c.04.13.13.23.24.29a9.36 9.36 0 014.34 5.25 8.9 8.9 0 01-.48 6.67l-.5-1.85a.47.47 0 00-.22-.3.51.51 0 00-.38-.06.49.49 0 00-.3.23.45.45 0 00-.04.37l.83 3c.04.13.12.23.23.3.11.06.25.07.38.04l3.1-.8v0c.26-.08.4-.34.33-.58h0z" fill="#747474" stroke="#747474" stroke-width=".55"/></svg>