<svg width="28" height="28" fill="none" xmlns="http://www.w3.org/2000/svg"><path d="M11.7 23.4a11.7 11.7 0 100-23.4 11.7 11.7 0 000 23.4z" fill="#FAF7F1"/><path fill-rule="evenodd" clip-rule="evenodd" d="M26.33 3.9H23.4a8.74 8.74 0 00-8.77 8.78v.39A9.05 9.05 0 007.8 9.75H4.88c-.59 0-.98.4-.98.98v2.92c0 4.88 3.9 8.78 8.78 8.78h1.95v3.9c0 .58.39.97.97.97.59 0 .98-.39.98-.97v-5.85h1.95c4.87 0 8.77-3.9 8.77-8.78V4.88c0-.59-.39-.98-.97-.98zM12.68 20.48a6.78 6.78 0 01-6.83-6.83V11.7H7.8c3.8 0 6.83 3.02 6.83 6.83v1.95h-1.95zm12.67-8.78c0 3.8-3.02 6.83-6.82 6.83h-1.95v-5.85c0-3.8 3.02-6.83 6.82-6.83h1.95v5.85z" fill="#747474"/></svg>