<svg width="132" height="70" fill="none" xmlns="http://www.w3.org/2000/svg"><path d="M.87 32V0h10.46c3.47 0 6.08.73 7.82 2.16 1.76 1.44 2.64 3.56 2.64 6.37 0 1.5-.42 2.82-1.27 3.98a8.3 8.3 0 01-3.48 2.66c1.73.48 3.1 1.4 4.1 2.77a7.83 7.83 0 011.5 4.83c0 2.87-.92 5.13-2.78 6.77C18 31.18 15.36 32 11.96 32H.88zM5.1 17.04v11.51h6.97c1.96 0 3.5-.5 4.63-1.52a5.38 5.38 0 001.72-4.21c0-3.86-2.1-5.78-6.29-5.78H5.1zm0-3.39h6.37c1.85 0 3.32-.46 4.42-1.38a4.62 4.62 0 001.67-3.76c0-1.76-.51-3.03-1.54-3.82-1.02-.8-2.58-1.21-4.68-1.21H5.1v10.17zm33.27 6.24c0-2.33.45-4.42 1.36-6.28.92-1.86 2.2-3.3 3.82-4.3a10.46 10.46 0 015.6-1.52A10 10 0 0157 11.15c2 2.24 3.01 5.22 3.01 8.94v.29c0 2.31-.45 4.4-1.34 6.24a10.01 10.01 0 01-3.8 4.28 10.47 10.47 0 01-5.67 1.54c-3.22 0-5.84-1.12-7.84-3.36-2-2.24-3-5.21-3-8.9v-.29zm4.09.49c0 2.63.6 4.75 1.82 6.35a5.9 5.9 0 004.92 2.4c2.07 0 3.7-.81 4.92-2.43 1.22-1.62 1.83-3.9 1.83-6.8 0-2.61-.63-4.72-1.87-6.34a5.86 5.86 0 00-4.92-2.43c-2.01 0-3.63.8-4.86 2.4-1.23 1.59-1.84 3.87-1.84 6.85zm32.73-.49c0-2.33.46-4.42 1.37-6.28.92-1.86 2.2-3.3 3.82-4.3a10.46 10.46 0 015.6-1.52 10 10 0 017.85 3.36c2 2.24 3 5.22 3 8.94v.29c0 2.31-.44 4.4-1.33 6.24a10.01 10.01 0 01-3.8 4.28 10.47 10.47 0 01-5.67 1.54c-3.23 0-5.84-1.12-7.85-3.36-1.99-2.24-2.99-5.21-2.99-8.9v-.29zm4.1.49c0 2.63.6 4.75 1.82 6.35a5.9 5.9 0 004.92 2.4c2.06 0 3.7-.81 4.92-2.43 1.21-1.62 1.82-3.9 1.82-6.8 0-2.61-.62-4.72-1.87-6.34a5.86 5.86 0 00-4.92-2.43c-2 0-3.62.8-4.85 2.4-1.23 1.59-1.85 3.87-1.85 6.85zm37.65-12.15l.13 2.98a8.67 8.67 0 017.12-3.42c5.03 0 7.56 2.83 7.6 8.5V32h-4.06V16.27c-.01-1.72-.4-2.98-1.18-3.8-.77-.82-1.96-1.23-3.59-1.23-1.31 0-2.47.35-3.47 1.05-1 .7-1.77 1.63-2.33 2.77V32h-4.06V8.23h3.84zm-84.9 43l6.55 15.68 6.58-15.68h2V69h-1.5v-7.74l.13-7.93L39.17 69H38l-6.6-15.61.13 7.82V69h-1.5V51.23h1.99zM59.66 69a6.9 6.9 0 01-.28-1.84 5.14 5.14 0 01-1.96 1.55c-.8.36-1.63.53-2.52.53-1.27 0-2.3-.35-3.08-1.06a3.47 3.47 0 01-1.18-2.68c0-1.29.54-2.3 1.6-3.06 1.08-.74 2.57-1.12 4.48-1.12h2.65v-1.5c0-.94-.3-1.68-.88-2.22-.58-.55-1.42-.82-2.54-.82-1.01 0-1.86.26-2.52.78-.67.52-1 1.15-1 1.88l-1.47-.01c0-1.05.49-1.96 1.47-2.72a5.62 5.62 0 013.6-1.16 5.1 5.1 0 013.48 1.1c.85.74 1.29 1.77 1.31 3.08v6.25c0 1.28.14 2.24.4 2.87V69h-1.56zm-4.59-1.05c.98 0 1.85-.24 2.62-.7a4.16 4.16 0 001.68-1.9v-2.9h-2.61a6.5 6.5 0 00-3.42.8 2.39 2.39 0 00-1.23 2.12c0 .75.27 1.36.82 1.85.55.49 1.27.73 2.14.73zm15.76-10.91c-.3-.06-.63-.09-.98-.09-.92 0-1.69.26-2.32.77a4.16 4.16 0 00-1.35 2.21V69h-1.45V55.8h1.43l.02 2.1a3.88 3.88 0 013.73-2.35c.4 0 .72.05.96.16l-.04 1.33zm5.46 5.3l-1.67 1.62V69h-1.47V50.25h1.47v12L76 60.76l5.05-4.97h1.84l-5.6 5.57L83.4 69h-1.75l-5.35-6.65zm13.99 6.9a5.68 5.68 0 01-5.16-3.14c-.5-.99-.76-2.1-.76-3.33v-.52c0-1.27.24-2.41.73-3.43a5.88 5.88 0 012.06-2.4 5.05 5.05 0 012.86-.87c1.6 0 2.87.55 3.81 1.65.94 1.09 1.42 2.58 1.42 4.48v.81H85.8v.28c0 1.5.43 2.75 1.28 3.75.87 1 1.95 1.5 3.25 1.5.78 0 1.47-.15 2.06-.44.6-.28 1.15-.74 1.64-1.36l.92.7a5.33 5.33 0 01-4.68 2.32zm-.27-12.45c-1.1 0-2.03.4-2.78 1.21a5.6 5.6 0 00-1.37 3.25h7.92v-.16a4.85 4.85 0 00-1.08-3.1 3.37 3.37 0 00-2.69-1.2zm10.34-4.38v3.38h2.74V57h-2.74v8.8c0 .73.13 1.28.4 1.64.26.35.7.53 1.32.53.25 0 .64-.04 1.19-.12l.06 1.2c-.39.13-.9.2-1.57.2-1 0-1.72-.28-2.18-.86a4.14 4.14 0 01-.68-2.58V57h-2.43v-1.2h2.43v-3.38h1.46z" fill="#747474"/></svg>